:SAMPLES-PER-SECOND 30
:FULLY-SPECIFIED
:DEGREES
230
root  -8.84646 37.7084 39.2909 0.664838 -6.98511 0.0144917
RightUpLeg  -23.1251 -12.7844 4.88616
RightLeg  36.3317 12.732 -3.39963
RightFoot  -17.2102 0.0284727 -0.748068
RightToes  -5.82073e-011 -3.18055e-015 -2.98177e-016
Spine  16.1675 -2.14481 1.13232
Spine1  -0.819014 -2.82034 4.01112
HEad  -22.9065 11.4996 3.38677
LeftShoulder1  -3.88251e-019 9.70628e-020 -3.87848e-018
LeftArm  -15.9279 43.9632 -65.5394
LeftForeArm  -14.348 -57.5349 17.5832
LeftHand  -2.66125 -13.8349 16.5922
RightShoulder  7.08457 10.3612 33.6383
RightArm  50.5912 -48.542 -3.67612
RightForeArm  -23.1149 52.8873 -34.7288
RightHand  -3.49496 9.11074 -27.3763
LeftUpLeg  -22.5765 8.31416 -4.69671
LeftLeg  36.5265 -2.29473 10.057
LeftFoot  -16.8264 -0.108378 -1.90392
LeftToes  5.79026e-011 9.70705e-012 -3.73859e-011
231
root  -8.78534 37.0205 39.082 0.00408307 -8.05497 0.0830041
RightUpLeg  -25.6338 -12.0967 4.80863
RightLeg  41.6259 13.1717 -3.48499
RightFoot  -19.1871 -0.00195196 -1.2141
RightToes  -5.82073e-011 -3.18055e-015 -2.98177e-016
Spine  19.6641 -2.07203 1.03376
Spine1  -0.993693 -2.78852 4.16819
HEad  -25.6852 12.1665 3.2538
LeftShoulder1  -3.88251e-019 9.70628e-020 -3.87848e-018
LeftArm  -15.8729 41.2772 -62.0913
LeftForeArm  -16.6735 -54.3806 15.2253
LeftHand  -3.47089 -13.7099 21.5846
RightShoulder  6.91885 10.3136 32.8818
RightArm  46.8612 -49.8489 -3.9973
RightForeArm  -19.5294 48.452 -29.3634
RightHand  -3.33734 9.37852 -25.7141
LeftUpLeg  -24.7601 9.98841 -4.74047
LeftLeg  41.597 -3.42622 10.7721
LeftFoot  -19.1153 -0.149057 -1.835
LeftToes  5.79026e-011 9.70705e-012 -3.73859e-011
232
root  -8.737 36.3242 38.9204 -0.0530637 -9.15414 0.408546
RightUpLeg  -28.6699 -11.3802 4.63789
RightLeg  46.6377 13.5535 -3.53743
RightFoot  -21.061 -0.0426252 -1.61408
RightToes  -5.82073e-011 -3.18055e-015 -2.98177e-016
Spine  21.686 -2.06815 1.20584
Spine1  0.0619805 -2.69285 3.41495
HEad  -28.1119 12.6065 3.66358
LeftShoulder1  -3.88251e-019 9.70628e-020 -3.87848e-018
LeftArm  -14.9232 38.2122 -58.2688
LeftForeArm  -20.0752 -50.1873 12.6467
LeftHand  -3.59275 -13.0851 23.0256
RightShoulder  6.78532 10.2781 32.2609
RightArm  38.038 -51.852 -1.08134
RightForeArm  -20.0491 40.4503 -22.0574
RightHand  -3.02181 7.95247 -25.8092
LeftUpLeg  -27.3248 11.0664 -5.15642
LeftLeg  46.2413 -4.22841 11.6239
LeftFoot  -21.4163 -0.210652 -2.10341
LeftToes  5.79026e-011 9.70705e-012 -3.73859e-011
233
root  -8.71283 35.6494 38.8345 1.40083 -10.1262 0.448824
RightUpLeg  -32.8289 -10.6116 5.13851
RightLeg  50.9711 13.8673 -3.55699
RightFoot  -22.6649 -0.0857601 -1.93553
RightToes  -5.82073e-011 -3.18055e-015 -2.98177e-016
Spine  22.5089 -2.0642 1.88984
Spine1  0.303065 -2.55679 2.65609
HEad  -29.2435 12.8341 4.2283
LeftShoulder1  -3.88251e-019 9.70628e-020 -3.87848e-018
LeftArm  -13.4076 36.5282 -54.9113
LeftForeArm  -23.6234 -45.543 10.3568
LeftHand  -3.12179 -12.0403 21.281
RightShoulder  6.79872 10.3099 32.2625
RightArm  29.8028 -53.8333 0.0640601
RightForeArm  -29.319 32.569 -16.2804
RightHand  -2.55526 4.54309 -29.139
LeftUpLeg  -31.246 11.6792 -5.62635
LeftLeg  50.4559 -4.86133 12.5653
LeftFoot  -23.2297 -0.266789 -2.30206
LeftToes  5.79026e-011 9.70705e-012 -3.73859e-011
234
root  -8.70351 35.077 38.7747 4.11402 -10.9459 0.198355
RightUpLeg  -37.7174 -9.66036 6.16328
RightLeg  54.2393 14.055 -3.62123
RightFoot  -23.7749 -0.108902 -2.02472
RightToes  -5.82073e-011 -3.18055e-015 -2.98177e-016
Spine  23.2482 -1.91677 2.4635
Spine1  -1.31374 -2.48371 2.78675
HEad  -29.5071 13.0972 4.08516
LeftShoulder1  -3.88251e-019 9.70628e-020 -3.87848e-018
LeftArm  -11.9777 37.9776 -52.4104
LeftForeArm  -25.6063 -42.354 9.03434
LeftHand  -2.4751 -10.8359 18.2815
RightShoulder  6.89183 10.352 32.6589
RightArm  28.868 -55.7449 -4.8553
RightForeArm  -41.6439 28.4617 -13.3589
RightHand  -1.97913 1.16774 -33.5425
LeftUpLeg  -36.1334 11.5851 -6.05793
LeftLeg  53.7885 -5.021 13.9107
LeftFoot  -24.2371 -0.341027 -2.82433
LeftToes  5.79026e-011 9.70705e-012 -3.73859e-011
235
root  -8.68959 34.5677 38.7065 7.24527 -11.4204 -0.0422494
RightUpLeg  -42.8108 -8.78191 7.14543
RightLeg  56.9008 14.0352 -3.96765
RightFoot  -24.6038 -0.114314 -1.95904
RightToes  -5.82073e-011 -3.18055e-015 -2.98177e-016
Spine  24.4933 -1.81545 2.42128
Spine1  -3.89609 -2.72915 4.0235
HEad  -30.1942 13.8962 2.85102
LeftShoulder1  -3.88251e-019 9.70628e-020 -3.87848e-018
LeftArm  -10.967 42.7312 -50.4252
LeftForeArm  -25.7982 -41.7631 8.8064
LeftHand  -2.04283 -9.93927 16.0743
RightShoulder  6.91483 10.3404 32.8034
RightArm  35.9663 -57.3243 -14.8694
RightForeArm  -46.8734 27.5717 -12.6546
RightHand  -1.55066 -0.352303 -34.0698
LeftUpLeg  -41.2314 10.2847 -6.41063
LeftLeg  56.569 -4.86048 15.7324
LeftFoot  -25.2278 -0.489888 -3.95537
LeftToes  5.79026e-011 9.70705e-012 -3.73859e-011
236
root  -8.65214 33.9874 38.6526 10.162 -11.392 -0.269082
RightUpLeg  -47.7751 -8.37982 8.00548
RightLeg  59.8004 13.9929 -4.45384
RightFoot  -25.5193 -0.125984 -1.95083
RightToes  -5.82073e-011 -3.18055e-015 -2.98177e-016
Spine  26.0516 -2.04061 2.29529
Spine1  -5.99117 -3.32861 5.66813
HEad  -32.0922 15.4308 1.13355
LeftShoulder1  -3.88251e-019 9.70628e-020 -3.87848e-018
LeftArm  -9.84622 49.3997 -48.6418
LeftForeArm  -26.4614 -43.0004 9.21622
LeftHand  -1.85313 -9.28099 15.2716
RightShoulder  6.87382 10.3341 32.6034
RightArm  46.6902 -58.2242 -26.7791
RightForeArm  -42.1433 28.1908 -13.1845
RightHand  -1.69529 0.643246 -31.4827
LeftUpLeg  -46.0957 7.82206 -6.42643
LeftLeg  59.6259 -5.03665 17.4754
LeftFoot  -27.0764 -0.692466 -5.04744
LeftToes  5.79026e-011 9.70705e-012 -3.73859e-011
237
root  -8.58018 33.296 38.6202 12.6209 -11.2375 -0.689674
RightUpLeg  -52.3605 -8.07078 8.89702
RightLeg  63.1372 14.1269 -4.73981
RightFoot  -26.4272 -0.133077 -1.90724
RightToes  -5.82073e-011 -3.18055e-015 -2.98177e-016
Spine  27.5603 -2.43768 2.7607
Spine1  -6.91712 -3.89201 6.71293
HEad  -34.9837 17.2233 -0.18747
LeftShoulder1  -3.88251e-019 9.70628e-020 -3.87848e-018
LeftArm  -8.22298 56.7649 -47.302
LeftForeArm  -29.3268 -45.1224 9.86945
LeftHand  -1.79402 -8.69669 15.4048
RightShoulder  6.85404 10.391 32.3793
RightArm  59.0991 -58.511 -39.4805
RightForeArm  -36.0686 30.4961 -14.7121
RightHand  -2.37341 2.94321 -31.846
LeftUpLeg  -50.5675 4.91562 -5.89896
LeftLeg  63.0921 -5.65788 19.0182
LeftFoot  -29.1327 -0.861572 -5.55463
LeftToes  5.79026e-011 9.70705e-012 -3.73859e-011
238
root  -8.47841 32.5265 38.5957 14.7098 -11.7181 -1.36468
RightUpLeg  -56.6819 -6.92444 9.6957
RightLeg  66.6639 14.2597 -5.16499
RightFoot  -27.1454 -0.105664 -1.60546
RightToes  -5.82073e-011 -3.18055e-015 -2.98177e-016
Spine  28.7056 -2.52899 3.62181
Spine1  -6.73238 -3.96036 6.79713
HEad  -38.2453 18.6255 -0.909408
LeftShoulder1  -3.88251e-019 9.70628e-020 -3.87848e-018
LeftArm  -6.95096 64.5613 -47.1369
LeftForeArm  -33.4781 -48.0159 10.8366
LeftHand  -1.8187 -8.32932 16.0275
RightShoulder  6.79479 10.4063 32.0381
RightArm  73.1927 -58.1797 -52.5792
RightForeArm  -36.3896 35.1609 -17.4651
RightHand  -2.85272 3.61868 -35.3323
LeftUpLeg  -54.8418 2.42639 -4.91537
LeftLeg  66.685 -6.26337 21.2675
LeftFoot  -30.1219 -0.993596 -6.08867
LeftToes  5.79026e-011 9.70705e-012 -3.73859e-011
239
root  -8.36932 31.6584 38.618 16.5377 -13.0367 -2.17777
RightUpLeg  -60.9116 -4.94277 10.294
RightLeg  70.4468 14.288 -6.18553
RightFoot  -28.0455 -0.0744265 -1.28989
RightToes  -5.82073e-011 -3.18055e-015 -2.98177e-016
Spine  29.4745 -2.19481 4.37805
Spine1  -6.02835 -3.54234 6.2113
HEad  -41.3474 19.4886 -1.27354
LeftShoulder1  -3.88251e-019 9.70628e-020 -3.87848e-018
LeftArm  -8.04248 72.1257 -49.6835
LeftForeArm  -37.1519 -50.6992 11.8771
LeftHand  -1.74742 -7.57877 16.3096
RightShoulder  6.57021 10.2579 31.17
RightArm  86.6371 -57.4708 -64.6147
RightForeArm  -38.6349 41.5408 -21.8073
RightHand  -3.20193 4.11436 -37.4526
LeftUpLeg  -59.0302 1.05741 -3.87231
LeftLeg  70.4675 -6.97039 24.5158
LeftFoot  -30.2963 -1.20019 -7.37952
LeftToes  5.79026e-011 9.70705e-012 -3.73859e-011
240
root  -8.2737 30.752 38.7252 17.7514 -14.392 -2.85862
RightUpLeg  -64.3557 -3.38816 10.7349
RightLeg  74.4146 14.4933 -7.04468
RightFoot  -29.4345 -0.0976244 -1.37384
RightToes  -5.82073e-011 -3.18055e-015 -2.98177e-016
Spine  30.3099 -1.89589 4.97834
Spine1  -5.55503 -3.06763 5.21747
HEad  -43.8197 20.1099 -1.14251
LeftShoulder1  -3.88251e-019 9.70628e-020 -3.87848e-018
LeftArm  -14.37 77.378 -57.6874
LeftForeArm  -39.5707 -50.8793 11.8162
LeftHand  -1.33344 -5.45036 14.9272
RightShoulder  6.16097 9.96479 29.5879
RightArm  96.7235 -57.5585 -74.6381
RightForeArm  -37.7668 48.1598 -27.8209
RightHand  -3.66207 5.75393 -36.6541
LeftUpLeg  -62.3389 0.848839 -3.33478
LeftLeg  74.19 -8.18376 27.335
LeftFoot  -30.9518 -1.49377 -8.94778
LeftToes  5.79026e-011 9.70705e-012 -3.73859e-011
241
root  -8.19546 30.0594 38.8664 17.8989 -14.8413 -3.06365
RightUpLeg  -66.0506 -3.20692 10.8456
RightLeg  77.7158 14.8929 -6.86676
RightFoot  -30.8443 -0.137184 -1.55672
RightToes  -5.82073e-011 -3.18055e-015 -2.98177e-016
Spine  31.3666 -1.9554 5.48346
Spine1  -5.55377 -2.84377 4.20607
HEad  -45.3526 20.5119 -0.24465
LeftShoulder1  -3.88251e-019 9.70628e-020 -3.87848e-018
LeftArm  -22.8799 78.0685 -68.0995
LeftForeArm  -40.7753 -47.388 10.1635
LeftHand  -0.824509 -2.99138 12.2061
RightShoulder  5.65948 9.61032 27.5489
RightArm  102.647 -60.2872 -81.843
RightForeArm  -36.9171 53.3514 -34.2512
RightHand  -3.69093 6.70459 -34.1553
LeftUpLeg  -63.8311 0.939772 -3.49525
LeftLeg  76.9348 -9.4703 28.3996
LeftFoot  -32.2482 -1.75071 -9.83531
LeftToes  5.79026e-011 9.70705e-012 -3.73859e-011
242
root  -8.16051 29.7455 39.01 17.2371 -14.2539 -2.75431
RightUpLeg  -66.1338 -4.01759 10.4721
RightLeg  79.534 15.12 -6.63808
RightFoot  -31.8523 -0.088406 -1.1974
RightToes  -5.82073e-011 -3.18055e-015 -2.98177e-016
Spine  31.9978 -2.01866 5.6045
Spine1  -5.89439 -2.78176 4.0998
HEad  -46.0549 20.1268 0.826344
LeftShoulder1  -3.88251e-019 9.70628e-020 -3.87848e-018
LeftArm  -23.1271 73.8867 -70.4962
LeftForeArm  -40.993 -42.0547 8.1735
LeftHand  -0.728488 -2.80964 11.0427
RightShoulder  5.17908 9.2076 25.6196
RightArm  102.703 -67.2122 -82.4234
RightForeArm  -38.8818 55.9809 -38.2036
RightHand  -3.29277 6.16157 -32.0818
LeftUpLeg  -63.7633 0.796266 -4.00588
LeftLeg  78.288 -10.2179 28.0424
LeftFoot  -33.3272 -1.83985 -9.78056
LeftToes  5.79026e-011 9.70705e-012 -3.73859e-011
243
root  -8.21643 29.7146 39.2114 16.2198 -13.0145 -2.32957
RightUpLeg  -65.0523 -5.16649 10.0835
RightLeg  79.9881 15.0596 -7.60381
RightFoot  -32.778 0.0168273 -0.545017
RightToes  -5.82073e-011 -3.18055e-015 -2.98177e-016
Spine  31.8738 -1.75328 5.17513
Spine1  -6.75715 -2.71186 5.44539
HEad  -46.2451 18.6536 0.844822
LeftShoulder1  -3.88251e-019 9.70628e-020 -3.87848e-018
LeftArm  -17.9561 65.6758 -67.3371
LeftForeArm  -40.3893 -38.4461 7.03945
LeftHand  -1.1245 -4.95119 13.235
RightShoulder  4.82587 8.80173 24.3474
RightArm  80.8598 -76.6662 -58.106
RightForeArm  -39.3993 56.0207 -38.1658
RightHand  -3.54123 6.85028 -32.484
LeftUpLeg  -62.7201 0.979819 -4.53523
LeftLeg  78.7582 -10.5342 26.9882
LeftFoot  -34.0849 -1.76658 -9.01934
LeftToes  5.79026e-011 9.70705e-012 -3.73859e-011
244
root  -8.33284 29.9151 39.4393 14.5308 -11.4149 -2.19312
RightUpLeg  -62.2551 -6.67813 10.1306
RightLeg  79.3754 14.8783 -8.55574
RightFoot  -33.4717 0.0357596 -0.435108
RightToes  -5.82073e-011 -3.18055e-015 -2.98177e-016
Spine  31.7486 -1.50765 4.7654
Spine1  -8.41954 -2.61842 7.31257
HEad  -45.8405 16.7359 -0.395472
LeftShoulder1  -3.88251e-019 9.70628e-020 -3.87848e-018
LeftArm  -13.1415 53.874 -63.1731
LeftForeArm  -39.4398 -38.2312 7.00573
LeftHand  -1.80046 -7.25565 17.2171
RightShoulder  4.72277 8.64485 24.0359
RightArm  18.8416 -73.8059 9.62725
RightForeArm  -34.6825 54.9123 -36.7977
RightHand  -4.80442 10.1243 -34.7068
LeftUpLeg  -60.2277 1.98984 -4.87864
LeftLeg  78.5154 -10.5794 25.0314
LeftFoot  -34.6974 -1.55522 -7.64586
LeftToes  5.79026e-011 9.70705e-012 -3.73859e-011
